<svg width="57" height="14" viewBox="0 0 57 14" fill="none" xmlns="http://www.w3.org/2000/svg">
<path fill-rule="evenodd" clip-rule="evenodd" d="M7 14C10.866 14 14 10.866 14 7C14 3.13401 10.866 0 7 0C3.13401 0 0 3.13401 0 7C0 10.866 3.13401 14 7 14Z" fill="#FF6370"/>
<path fill-rule="evenodd" clip-rule="evenodd" d="M32 12C34.7614 12 37 9.76142 37 7C37 4.23858 34.7614 2 32 2C29.2386 2 27 4.23858 27 7C27 9.76142 29.2386 12 32 12Z" fill="#FF6370"/>
<path fill-rule="evenodd" clip-rule="evenodd" d="M53.5 10.5C55.433 10.5 57 8.933 57 7C57 5.067 55.433 3.5 53.5 3.5C51.567 3.5 50 5.067 50 7C50 8.933 51.567 10.5 53.5 10.5Z" fill="#FF6370"/>
</svg>
