<svg width="227" height="323" viewBox="0 0 227 323" fill="none" xmlns="http://www.w3.org/2000/svg">
<path fill-rule="evenodd" clip-rule="evenodd" d="M221.5 11C224.538 11 227 8.53757 227 5.5C227 2.46243 224.538 0 221.5 0C218.462 0 216 2.46243 216 5.5C216 8.53757 218.462 11 221.5 11ZM221.5 43C224.538 43 227 40.5376 227 37.5C227 34.4624 224.538 32 221.5 32C218.462 32 216 34.4624 216 37.5C216 40.5376 218.462 43 221.5 43ZM221.5 74C224.538 74 227 71.5376 227 68.5C227 65.4624 224.538 63 221.5 63C218.462 63 216 65.4624 216 68.5C216 71.5376 218.462 74 221.5 74ZM221.5 104C224.538 104 227 101.538 227 98.5C227 95.4624 224.538 93 221.5 93C218.462 93 216 95.4624 216 98.5C216 101.538 218.462 104 221.5 104ZM221.5 136C224.538 136 227 133.538 227 130.5C227 127.462 224.538 125 221.5 125C218.462 125 216 127.462 216 130.5C216 133.538 218.462 136 221.5 136ZM221.5 166C224.538 166 227 163.538 227 160.5C227 157.462 224.538 155 221.5 155C218.462 155 216 157.462 216 160.5C216 163.538 218.462 166 221.5 166ZM221.5 198C224.538 198 227 195.538 227 192.5C227 189.462 224.538 187 221.5 187C218.462 187 216 189.462 216 192.5C216 195.538 218.462 198 221.5 198ZM221.5 230C224.538 230 227 227.538 227 224.5C227 221.462 224.538 219 221.5 219C218.462 219 216 221.462 216 224.5C216 227.538 218.462 230 221.5 230ZM221.5 260C224.538 260 227 257.538 227 254.5C227 251.462 224.538 249 221.5 249C218.462 249 216 251.462 216 254.5C216 257.538 218.462 260 221.5 260ZM221.5 291C224.538 291 227 288.538 227 285.5C227 282.462 224.538 280 221.5 280C218.462 280 216 282.462 216 285.5C216 288.538 218.462 291 221.5 291ZM134 317.5C134 320.538 131.538 323 128.5 323C125.462 323 123 320.538 123 317.5C123 314.462 125.462 312 128.5 312C131.538 312 134 314.462 134 317.5ZM159.5 323C162.538 323 165 320.538 165 317.5C165 314.462 162.538 312 159.5 312C156.462 312 154 314.462 154 317.5C154 320.538 156.462 323 159.5 323ZM196 317.5C196 320.538 193.538 323 190.5 323C187.462 323 185 320.538 185 317.5C185 314.462 187.462 312 190.5 312C193.538 312 196 314.462 196 317.5ZM227 317.5C227 320.538 224.538 323 221.5 323C218.462 323 216 320.538 216 317.5C216 314.462 218.462 312 221.5 312C224.538 312 227 314.462 227 317.5ZM196 285.5C196 288.538 193.538 291 190.5 291C187.462 291 185 288.538 185 285.5C185 282.462 187.462 280 190.5 280C193.538 280 196 282.462 196 285.5ZM159.5 291C162.538 291 165 288.538 165 285.5C165 282.462 162.538 280 159.5 280C156.462 280 154 282.462 154 285.5C154 288.538 156.462 291 159.5 291ZM134 285.5C134 288.538 131.538 291 128.5 291C125.462 291 123 288.538 123 285.5C123 282.462 125.462 280 128.5 280C131.538 280 134 282.462 134 285.5ZM196 254.5C196 257.538 193.538 260 190.5 260C187.462 260 185 257.538 185 254.5C185 251.462 187.462 249 190.5 249C193.538 249 196 251.462 196 254.5ZM159.5 260C162.538 260 165 257.538 165 254.5C165 251.462 162.538 249 159.5 249C156.462 249 154 251.462 154 254.5C154 257.538 156.462 260 159.5 260ZM134 254.5C134 257.538 131.538 260 128.5 260C125.462 260 123 257.538 123 254.5C123 251.462 125.462 249 128.5 249C131.538 249 134 251.462 134 254.5ZM196 224.5C196 227.538 193.538 230 190.5 230C187.462 230 185 227.538 185 224.5C185 221.462 187.462 219 190.5 219C193.538 219 196 221.462 196 224.5ZM159.5 230C162.538 230 165 227.538 165 224.5C165 221.462 162.538 219 159.5 219C156.462 219 154 221.462 154 224.5C154 227.538 156.462 230 159.5 230ZM134 224.5C134 227.538 131.538 230 128.5 230C125.462 230 123 227.538 123 224.5C123 221.462 125.462 219 128.5 219C131.538 219 134 221.462 134 224.5ZM196 192.5C196 195.538 193.538 198 190.5 198C187.462 198 185 195.538 185 192.5C185 189.462 187.462 187 190.5 187C193.538 187 196 189.462 196 192.5ZM159.5 198C162.538 198 165 195.538 165 192.5C165 189.462 162.538 187 159.5 187C156.462 187 154 189.462 154 192.5C154 195.538 156.462 198 159.5 198ZM134 192.5C134 195.538 131.538 198 128.5 198C125.462 198 123 195.538 123 192.5C123 189.462 125.462 187 128.5 187C131.538 187 134 189.462 134 192.5ZM196 160.5C196 163.538 193.538 166 190.5 166C187.462 166 185 163.538 185 160.5C185 157.462 187.462 155 190.5 155C193.538 155 196 157.462 196 160.5ZM159.5 166C162.538 166 165 163.538 165 160.5C165 157.462 162.538 155 159.5 155C156.462 155 154 157.462 154 160.5C154 163.538 156.462 166 159.5 166ZM134 160.5C134 163.538 131.538 166 128.5 166C125.462 166 123 163.538 123 160.5C123 157.462 125.462 155 128.5 155C131.538 155 134 157.462 134 160.5ZM196 130.5C196 133.538 193.538 136 190.5 136C187.462 136 185 133.538 185 130.5C185 127.462 187.462 125 190.5 125C193.538 125 196 127.462 196 130.5ZM159.5 136C162.538 136 165 133.538 165 130.5C165 127.462 162.538 125 159.5 125C156.462 125 154 127.462 154 130.5C154 133.538 156.462 136 159.5 136ZM134 130.5C134 133.538 131.538 136 128.5 136C125.462 136 123 133.538 123 130.5C123 127.462 125.462 125 128.5 125C131.538 125 134 127.462 134 130.5ZM196 98.5C196 101.538 193.538 104 190.5 104C187.462 104 185 101.538 185 98.5C185 95.4624 187.462 93 190.5 93C193.538 93 196 95.4624 196 98.5ZM159.5 104C162.538 104 165 101.538 165 98.5C165 95.4624 162.538 93 159.5 93C156.462 93 154 95.4624 154 98.5C154 101.538 156.462 104 159.5 104ZM134 98.5C134 101.538 131.538 104 128.5 104C125.462 104 123 101.538 123 98.5C123 95.4624 125.462 93 128.5 93C131.538 93 134 95.4624 134 98.5ZM196 68.5C196 71.5376 193.538 74 190.5 74C187.462 74 185 71.5376 185 68.5C185 65.4624 187.462 63 190.5 63C193.538 63 196 65.4624 196 68.5ZM159.5 74C162.538 74 165 71.5376 165 68.5C165 65.4624 162.538 63 159.5 63C156.462 63 154 65.4624 154 68.5C154 71.5376 156.462 74 159.5 74ZM134 68.5C134 71.5376 131.538 74 128.5 74C125.462 74 123 71.5376 123 68.5C123 65.4624 125.462 63 128.5 63C131.538 63 134 65.4624 134 68.5ZM196 37.5C196 40.5376 193.538 43 190.5 43C187.462 43 185 40.5376 185 37.5C185 34.4624 187.462 32 190.5 32C193.538 32 196 34.4624 196 37.5ZM159.5 43C162.538 43 165 40.5376 165 37.5C165 34.4624 162.538 32 159.5 32C156.462 32 154 34.4624 154 37.5C154 40.5376 156.462 43 159.5 43ZM134 37.5C134 40.5376 131.538 43 128.5 43C125.462 43 123 40.5376 123 37.5C123 34.4624 125.462 32 128.5 32C131.538 32 134 34.4624 134 37.5ZM196 5.5C196 8.53757 193.538 11 190.5 11C187.462 11 185 8.53757 185 5.5C185 2.46243 187.462 0 190.5 0C193.538 0 196 2.46243 196 5.5ZM159.5 11C162.538 11 165 8.53757 165 5.5C165 2.46243 162.538 0 159.5 0C156.462 0 154 2.46243 154 5.5C154 8.53757 156.462 11 159.5 11ZM134 5.5C134 8.53757 131.538 11 128.5 11C125.462 11 123 8.53757 123 5.5C123 2.46243 125.462 0 128.5 0C131.538 0 134 2.46243 134 5.5ZM98.5 323C101.538 323 104 320.538 104 317.5C104 314.462 101.538 312 98.5 312C95.4624 312 93 314.462 93 317.5C93 320.538 95.4624 323 98.5 323ZM73 317.5C73 320.538 70.5376 323 67.5 323C64.4624 323 62 320.538 62 317.5C62 314.462 64.4624 312 67.5 312C70.5376 312 73 314.462 73 317.5ZM36.5 323C39.5376 323 42 320.538 42 317.5C42 314.462 39.5376 312 36.5 312C33.4624 312 31 314.462 31 317.5C31 320.538 33.4624 323 36.5 323ZM11 317.5C11 320.538 8.53757 323 5.5 323C2.46243 323 0 320.538 0 317.5C0 314.462 2.46243 312 5.5 312C8.53757 312 11 314.462 11 317.5ZM98.5 291C101.538 291 104 288.538 104 285.5C104 282.462 101.538 280 98.5 280C95.4624 280 93 282.462 93 285.5C93 288.538 95.4624 291 98.5 291ZM73 285.5C73 288.538 70.5376 291 67.5 291C64.4624 291 62 288.538 62 285.5C62 282.462 64.4624 280 67.5 280C70.5376 280 73 282.462 73 285.5ZM36.5 291C39.5376 291 42 288.538 42 285.5C42 282.462 39.5376 280 36.5 280C33.4624 280 31 282.462 31 285.5C31 288.538 33.4624 291 36.5 291ZM11 285.5C11 288.538 8.53757 291 5.5 291C2.46243 291 0 288.538 0 285.5C0 282.462 2.46243 280 5.5 280C8.53757 280 11 282.462 11 285.5ZM98.5 260C101.538 260 104 257.538 104 254.5C104 251.462 101.538 249 98.5 249C95.4624 249 93 251.462 93 254.5C93 257.538 95.4624 260 98.5 260ZM73 254.5C73 257.538 70.5376 260 67.5 260C64.4624 260 62 257.538 62 254.5C62 251.462 64.4624 249 67.5 249C70.5376 249 73 251.462 73 254.5ZM36.5 260C39.5376 260 42 257.538 42 254.5C42 251.462 39.5376 249 36.5 249C33.4624 249 31 251.462 31 254.5C31 257.538 33.4624 260 36.5 260ZM11 254.5C11 257.538 8.53757 260 5.5 260C2.46243 260 0 257.538 0 254.5C0 251.462 2.46243 249 5.5 249C8.53757 249 11 251.462 11 254.5ZM98.5 230C101.538 230 104 227.538 104 224.5C104 221.462 101.538 219 98.5 219C95.4624 219 93 221.462 93 224.5C93 227.538 95.4624 230 98.5 230ZM73 224.5C73 227.538 70.5376 230 67.5 230C64.4624 230 62 227.538 62 224.5C62 221.462 64.4624 219 67.5 219C70.5376 219 73 221.462 73 224.5ZM36.5 230C39.5376 230 42 227.538 42 224.5C42 221.462 39.5376 219 36.5 219C33.4624 219 31 221.462 31 224.5C31 227.538 33.4624 230 36.5 230ZM11 224.5C11 227.538 8.53757 230 5.5 230C2.46243 230 0 227.538 0 224.5C0 221.462 2.46243 219 5.5 219C8.53757 219 11 221.462 11 224.5ZM98.5 198C101.538 198 104 195.538 104 192.5C104 189.462 101.538 187 98.5 187C95.4624 187 93 189.462 93 192.5C93 195.538 95.4624 198 98.5 198ZM73 192.5C73 195.538 70.5376 198 67.5 198C64.4624 198 62 195.538 62 192.5C62 189.462 64.4624 187 67.5 187C70.5376 187 73 189.462 73 192.5ZM36.5 198C39.5376 198 42 195.538 42 192.5C42 189.462 39.5376 187 36.5 187C33.4624 187 31 189.462 31 192.5C31 195.538 33.4624 198 36.5 198ZM11 192.5C11 195.538 8.53757 198 5.5 198C2.46243 198 0 195.538 0 192.5C0 189.462 2.46243 187 5.5 187C8.53757 187 11 189.462 11 192.5ZM98.5 166C101.538 166 104 163.538 104 160.5C104 157.462 101.538 155 98.5 155C95.4624 155 93 157.462 93 160.5C93 163.538 95.4624 166 98.5 166ZM73 160.5C73 163.538 70.5376 166 67.5 166C64.4624 166 62 163.538 62 160.5C62 157.462 64.4624 155 67.5 155C70.5376 155 73 157.462 73 160.5ZM36.5 166C39.5376 166 42 163.538 42 160.5C42 157.462 39.5376 155 36.5 155C33.4624 155 31 157.462 31 160.5C31 163.538 33.4624 166 36.5 166ZM11 160.5C11 163.538 8.53757 166 5.5 166C2.46243 166 0 163.538 0 160.5C0 157.462 2.46243 155 5.5 155C8.53757 155 11 157.462 11 160.5ZM98.5 136C101.538 136 104 133.538 104 130.5C104 127.462 101.538 125 98.5 125C95.4624 125 93 127.462 93 130.5C93 133.538 95.4624 136 98.5 136ZM73 130.5C73 133.538 70.5376 136 67.5 136C64.4624 136 62 133.538 62 130.5C62 127.462 64.4624 125 67.5 125C70.5376 125 73 127.462 73 130.5ZM36.5 136C39.5376 136 42 133.538 42 130.5C42 127.462 39.5376 125 36.5 125C33.4624 125 31 127.462 31 130.5C31 133.538 33.4624 136 36.5 136ZM11 130.5C11 133.538 8.53757 136 5.5 136C2.46243 136 0 133.538 0 130.5C0 127.462 2.46243 125 5.5 125C8.53757 125 11 127.462 11 130.5ZM98.5 104C101.538 104 104 101.538 104 98.5C104 95.4624 101.538 93 98.5 93C95.4624 93 93 95.4624 93 98.5C93 101.538 95.4624 104 98.5 104ZM73 98.5C73 101.538 70.5376 104 67.5 104C64.4624 104 62 101.538 62 98.5C62 95.4624 64.4624 93 67.5 93C70.5376 93 73 95.4624 73 98.5ZM36.5 104C39.5376 104 42 101.538 42 98.5C42 95.4624 39.5376 93 36.5 93C33.4624 93 31 95.4624 31 98.5C31 101.538 33.4624 104 36.5 104ZM11 98.5C11 101.538 8.53757 104 5.5 104C2.46243 104 0 101.538 0 98.5C0 95.4624 2.46243 93 5.5 93C8.53757 93 11 95.4624 11 98.5ZM98.5 74C101.538 74 104 71.5376 104 68.5C104 65.4624 101.538 63 98.5 63C95.4624 63 93 65.4624 93 68.5C93 71.5376 95.4624 74 98.5 74ZM73 68.5C73 71.5376 70.5376 74 67.5 74C64.4624 74 62 71.5376 62 68.5C62 65.4624 64.4624 63 67.5 63C70.5376 63 73 65.4624 73 68.5ZM36.5 74C39.5376 74 42 71.5376 42 68.5C42 65.4624 39.5376 63 36.5 63C33.4624 63 31 65.4624 31 68.5C31 71.5376 33.4624 74 36.5 74ZM11 68.5C11 71.5376 8.53757 74 5.5 74C2.46243 74 0 71.5376 0 68.5C0 65.4624 2.46243 63 5.5 63C8.53757 63 11 65.4624 11 68.5ZM98.5 43C101.538 43 104 40.5376 104 37.5C104 34.4624 101.538 32 98.5 32C95.4624 32 93 34.4624 93 37.5C93 40.5376 95.4624 43 98.5 43ZM73 37.5C73 40.5376 70.5376 43 67.5 43C64.4624 43 62 40.5376 62 37.5C62 34.4624 64.4624 32 67.5 32C70.5376 32 73 34.4624 73 37.5ZM36.5 43C39.5376 43 42 40.5376 42 37.5C42 34.4624 39.5376 32 36.5 32C33.4624 32 31 34.4624 31 37.5C31 40.5376 33.4624 43 36.5 43ZM11 37.5C11 40.5376 8.53757 43 5.5 43C2.46243 43 0 40.5376 0 37.5C0 34.4624 2.46243 32 5.5 32C8.53757 32 11 34.4624 11 37.5ZM98.5 11C101.538 11 104 8.53757 104 5.5C104 2.46243 101.538 0 98.5 0C95.4624 0 93 2.46243 93 5.5C93 8.53757 95.4624 11 98.5 11ZM73 5.5C73 8.53757 70.5376 11 67.5 11C64.4624 11 62 8.53757 62 5.5C62 2.46243 64.4624 0 67.5 0C70.5376 0 73 2.46243 73 5.5ZM36.5 11C39.5376 11 42 8.53757 42 5.5C42 2.46243 39.5376 0 36.5 0C33.4624 0 31 2.46243 31 5.5C31 8.53757 33.4624 11 36.5 11ZM11 5.5C11 8.53757 8.53757 11 5.5 11C2.46243 11 0 8.53757 0 5.5C0 2.46243 2.46243 0 5.5 0C8.53757 0 11 2.46243 11 5.5Z" fill="#FECC36"/>
</svg>
